<mxfile host="app.diagrams.net" agent="Mozilla/5.0 (Windows NT 10.0; Win64; x64) AppleWebKit/537.36 (KHTML, like Gecko) Chrome/132.0.0.0 Safari/537.36" version="26.0.9">
  <diagram name="Page-1" id="XjuH2lZ-Ng5axUFjEl04">
    <mxGraphModel dx="2048" dy="725" grid="1" gridSize="10" guides="1" tooltips="1" connect="1" arrows="1" fold="1" page="1" pageScale="1" pageWidth="827" pageHeight="1169" math="0" shadow="0">
      <root>
        <mxCell id="0" />
        <mxCell id="1" parent="0" />
        <mxCell id="HJ9GVEWfjG73R25og2IA-1" value="Input" style="whiteSpace=wrap;strokeWidth=2;" vertex="1" parent="1">
          <mxGeometry x="71" y="20" width="97" height="54" as="geometry" />
        </mxCell>
        <mxCell id="HJ9GVEWfjG73R25og2IA-2" value="Conv1: 64 filters, 3x3 kernel, padding 1" style="whiteSpace=wrap;strokeWidth=2;" vertex="1" parent="1">
          <mxGeometry x="-10" y="124" width="260" height="78" as="geometry" />
        </mxCell>
        <mxCell id="HJ9GVEWfjG73R25og2IA-3" value="ReLU1_1" style="whiteSpace=wrap;strokeWidth=2;" vertex="1" parent="1">
          <mxGeometry x="59" y="252" width="121" height="54" as="geometry" />
        </mxCell>
        <mxCell id="HJ9GVEWfjG73R25og2IA-4" value="Conv1: 64 filters, 3x3 kernel, padding 1" style="whiteSpace=wrap;strokeWidth=2;" vertex="1" parent="1">
          <mxGeometry x="-10" y="356" width="260" height="78" as="geometry" />
        </mxCell>
        <mxCell id="HJ9GVEWfjG73R25og2IA-5" value="ReLU1_2" style="whiteSpace=wrap;strokeWidth=2;" vertex="1" parent="1">
          <mxGeometry x="59" y="484" width="121" height="54" as="geometry" />
        </mxCell>
        <mxCell id="HJ9GVEWfjG73R25og2IA-6" value="MaxPool: 2x2 kernel, stride 2" style="whiteSpace=wrap;strokeWidth=2;" vertex="1" parent="1">
          <mxGeometry x="-10" y="588" width="260" height="78" as="geometry" />
        </mxCell>
        <mxCell id="HJ9GVEWfjG73R25og2IA-7" value="Conv2: 128 filters, 3x3 kernel, padding 1" style="whiteSpace=wrap;strokeWidth=2;" vertex="1" parent="1">
          <mxGeometry x="-10" y="716" width="260" height="78" as="geometry" />
        </mxCell>
        <mxCell id="HJ9GVEWfjG73R25og2IA-8" value="ReLU2_1" style="whiteSpace=wrap;strokeWidth=2;" vertex="1" parent="1">
          <mxGeometry x="59" y="844" width="121" height="54" as="geometry" />
        </mxCell>
        <mxCell id="HJ9GVEWfjG73R25og2IA-9" value="Conv2: 128 filters, 3x3 kernel, padding 1" style="whiteSpace=wrap;strokeWidth=2;" vertex="1" parent="1">
          <mxGeometry x="-10" y="948" width="260" height="78" as="geometry" />
        </mxCell>
        <mxCell id="HJ9GVEWfjG73R25og2IA-10" value="ReLU2_2" style="whiteSpace=wrap;strokeWidth=2;" vertex="1" parent="1">
          <mxGeometry x="59" y="1076" width="121" height="54" as="geometry" />
        </mxCell>
        <mxCell id="HJ9GVEWfjG73R25og2IA-11" value="MaxPool: 2x2 kernel, stride 2" style="whiteSpace=wrap;strokeWidth=2;" vertex="1" parent="1">
          <mxGeometry x="-10" y="1180" width="260" height="78" as="geometry" />
        </mxCell>
        <mxCell id="HJ9GVEWfjG73R25og2IA-12" value="Conv3: 256 filters, 3x3 kernel, padding 1" style="whiteSpace=wrap;strokeWidth=2;" vertex="1" parent="1">
          <mxGeometry x="-10" y="1308" width="260" height="78" as="geometry" />
        </mxCell>
        <mxCell id="HJ9GVEWfjG73R25og2IA-84" style="edgeStyle=orthogonalEdgeStyle;rounded=0;orthogonalLoop=1;jettySize=auto;html=1;entryX=0.5;entryY=0;entryDx=0;entryDy=0;" edge="1" parent="1" source="HJ9GVEWfjG73R25og2IA-13" target="HJ9GVEWfjG73R25og2IA-14">
          <mxGeometry relative="1" as="geometry">
            <Array as="points">
              <mxPoint x="320" y="1463" />
              <mxPoint x="320" y="20" />
              <mxPoint x="510" y="20" />
            </Array>
          </mxGeometry>
        </mxCell>
        <mxCell id="HJ9GVEWfjG73R25og2IA-13" value="ReLU3_1" style="whiteSpace=wrap;strokeWidth=2;" vertex="1" parent="1">
          <mxGeometry x="59" y="1436" width="121" height="54" as="geometry" />
        </mxCell>
        <mxCell id="HJ9GVEWfjG73R25og2IA-14" value="Conv3: 256 filters, 3x3 kernel, padding 1" style="whiteSpace=wrap;strokeWidth=2;" vertex="1" parent="1">
          <mxGeometry x="379.5" y="40" width="260" height="78" as="geometry" />
        </mxCell>
        <mxCell id="HJ9GVEWfjG73R25og2IA-15" value="ReLU3_2" style="whiteSpace=wrap;strokeWidth=2;" vertex="1" parent="1">
          <mxGeometry x="448.5" y="168" width="121" height="54" as="geometry" />
        </mxCell>
        <mxCell id="HJ9GVEWfjG73R25og2IA-16" value="Conv3: 256 filters, 3x3 kernel, padding 1" style="whiteSpace=wrap;strokeWidth=2;" vertex="1" parent="1">
          <mxGeometry x="380" y="280" width="260" height="78" as="geometry" />
        </mxCell>
        <mxCell id="HJ9GVEWfjG73R25og2IA-17" value="ReLU3_3" style="whiteSpace=wrap;strokeWidth=2;" vertex="1" parent="1">
          <mxGeometry x="449" y="408" width="121" height="54" as="geometry" />
        </mxCell>
        <mxCell id="HJ9GVEWfjG73R25og2IA-18" value="MaxPool: 2x2 kernel, stride 2" style="whiteSpace=wrap;strokeWidth=2;" vertex="1" parent="1">
          <mxGeometry x="380" y="512" width="260" height="78" as="geometry" />
        </mxCell>
        <mxCell id="HJ9GVEWfjG73R25og2IA-19" value="Conv4: 512 filters, 3x3 kernel, padding 1" style="whiteSpace=wrap;strokeWidth=2;" vertex="1" parent="1">
          <mxGeometry x="380" y="640" width="260" height="78" as="geometry" />
        </mxCell>
        <mxCell id="HJ9GVEWfjG73R25og2IA-20" value="ReLU4_1" style="whiteSpace=wrap;strokeWidth=2;" vertex="1" parent="1">
          <mxGeometry x="449" y="768" width="121" height="54" as="geometry" />
        </mxCell>
        <mxCell id="HJ9GVEWfjG73R25og2IA-21" value="Conv4: 512 filters, 3x3 kernel, padding 1" style="whiteSpace=wrap;strokeWidth=2;" vertex="1" parent="1">
          <mxGeometry x="380" y="872" width="260" height="78" as="geometry" />
        </mxCell>
        <mxCell id="HJ9GVEWfjG73R25og2IA-22" value="ReLU4_2" style="whiteSpace=wrap;strokeWidth=2;" vertex="1" parent="1">
          <mxGeometry x="449" y="1000" width="121" height="54" as="geometry" />
        </mxCell>
        <mxCell id="HJ9GVEWfjG73R25og2IA-23" value="Conv4: 512 filters, 3x3 kernel, padding 1" style="whiteSpace=wrap;strokeWidth=2;" vertex="1" parent="1">
          <mxGeometry x="380" y="1104" width="260" height="78" as="geometry" />
        </mxCell>
        <mxCell id="HJ9GVEWfjG73R25og2IA-24" value="ReLU4_3" style="whiteSpace=wrap;strokeWidth=2;" vertex="1" parent="1">
          <mxGeometry x="449" y="1232" width="121" height="54" as="geometry" />
        </mxCell>
        <mxCell id="HJ9GVEWfjG73R25og2IA-25" value="MaxPool: 2x2 kernel, stride 2" style="whiteSpace=wrap;strokeWidth=2;" vertex="1" parent="1">
          <mxGeometry x="380" y="1336" width="260" height="78" as="geometry" />
        </mxCell>
        <mxCell id="HJ9GVEWfjG73R25og2IA-83" style="edgeStyle=orthogonalEdgeStyle;rounded=0;orthogonalLoop=1;jettySize=auto;html=1;entryX=0.5;entryY=0;entryDx=0;entryDy=0;" edge="1" parent="1" source="HJ9GVEWfjG73R25og2IA-26" target="HJ9GVEWfjG73R25og2IA-27">
          <mxGeometry relative="1" as="geometry">
            <Array as="points">
              <mxPoint x="720" y="1503" />
              <mxPoint x="720" y="20" />
              <mxPoint x="920" y="20" />
            </Array>
          </mxGeometry>
        </mxCell>
        <mxCell id="HJ9GVEWfjG73R25og2IA-26" value="Conv5: 512 filters, 3x3 kernel, padding 1" style="whiteSpace=wrap;strokeWidth=2;" vertex="1" parent="1">
          <mxGeometry x="380" y="1464" width="260" height="78" as="geometry" />
        </mxCell>
        <mxCell id="HJ9GVEWfjG73R25og2IA-27" value="ReLU5_1" style="whiteSpace=wrap;strokeWidth=2;" vertex="1" parent="1">
          <mxGeometry x="859" y="40" width="121" height="54" as="geometry" />
        </mxCell>
        <mxCell id="HJ9GVEWfjG73R25og2IA-28" value="Conv5: 512 filters, 3x3 kernel, padding 1" style="whiteSpace=wrap;strokeWidth=2;" vertex="1" parent="1">
          <mxGeometry x="790" y="144" width="260" height="78" as="geometry" />
        </mxCell>
        <mxCell id="HJ9GVEWfjG73R25og2IA-29" value="ReLU5_2" style="whiteSpace=wrap;strokeWidth=2;" vertex="1" parent="1">
          <mxGeometry x="859" y="272" width="121" height="54" as="geometry" />
        </mxCell>
        <mxCell id="HJ9GVEWfjG73R25og2IA-30" value="Conv5: 512 filters, 3x3 kernel, padding 1" style="whiteSpace=wrap;strokeWidth=2;" vertex="1" parent="1">
          <mxGeometry x="790.5" y="380" width="260" height="78" as="geometry" />
        </mxCell>
        <mxCell id="HJ9GVEWfjG73R25og2IA-31" value="ReLU5_3" style="whiteSpace=wrap;strokeWidth=2;" vertex="1" parent="1">
          <mxGeometry x="859.5" y="508" width="121" height="54" as="geometry" />
        </mxCell>
        <mxCell id="HJ9GVEWfjG73R25og2IA-32" value="MaxPool: 2x2 kernel, stride 2" style="whiteSpace=wrap;strokeWidth=2;" vertex="1" parent="1">
          <mxGeometry x="790.5" y="612" width="260" height="78" as="geometry" />
        </mxCell>
        <mxCell id="HJ9GVEWfjG73R25og2IA-33" value="Flatten" style="whiteSpace=wrap;strokeWidth=2;" vertex="1" parent="1">
          <mxGeometry x="864.5" y="740" width="112" height="54" as="geometry" />
        </mxCell>
        <mxCell id="HJ9GVEWfjG73R25og2IA-34" value="Fully Connected: 4096 neurons" style="whiteSpace=wrap;strokeWidth=2;" vertex="1" parent="1">
          <mxGeometry x="790.5" y="844" width="260" height="78" as="geometry" />
        </mxCell>
        <mxCell id="HJ9GVEWfjG73R25og2IA-35" value="ReLU_FC1" style="whiteSpace=wrap;strokeWidth=2;" vertex="1" parent="1">
          <mxGeometry x="855.5" y="972" width="131" height="54" as="geometry" />
        </mxCell>
        <mxCell id="HJ9GVEWfjG73R25og2IA-36" value="Dropout 50%" style="whiteSpace=wrap;strokeWidth=2;" vertex="1" parent="1">
          <mxGeometry x="846.5" y="1076" width="148" height="54" as="geometry" />
        </mxCell>
        <mxCell id="HJ9GVEWfjG73R25og2IA-37" value="Fully Connected: 4096 neurons" style="whiteSpace=wrap;strokeWidth=2;" vertex="1" parent="1">
          <mxGeometry x="790.5" y="1180" width="260" height="78" as="geometry" />
        </mxCell>
        <mxCell id="HJ9GVEWfjG73R25og2IA-38" value="ReLU_FC2" style="whiteSpace=wrap;strokeWidth=2;" vertex="1" parent="1">
          <mxGeometry x="855.5" y="1308" width="131" height="54" as="geometry" />
        </mxCell>
        <mxCell id="HJ9GVEWfjG73R25og2IA-39" value="Dropout 50%" style="whiteSpace=wrap;strokeWidth=2;" vertex="1" parent="1">
          <mxGeometry x="846.5" y="1412" width="148" height="54" as="geometry" />
        </mxCell>
        <mxCell id="HJ9GVEWfjG73R25og2IA-82" style="edgeStyle=orthogonalEdgeStyle;rounded=0;orthogonalLoop=1;jettySize=auto;html=1;entryX=1;entryY=0.5;entryDx=0;entryDy=0;exitX=0.5;exitY=1;exitDx=0;exitDy=0;" edge="1" parent="1" source="HJ9GVEWfjG73R25og2IA-40" target="HJ9GVEWfjG73R25og2IA-41">
          <mxGeometry relative="1" as="geometry" />
        </mxCell>
        <mxCell id="HJ9GVEWfjG73R25og2IA-40" value="Fully Connected: 5 neurons" style="whiteSpace=wrap;strokeWidth=2;" vertex="1" parent="1">
          <mxGeometry x="792.5" y="1516" width="256" height="54" as="geometry" />
        </mxCell>
        <mxCell id="HJ9GVEWfjG73R25og2IA-41" value="Predicted Classes" style="whiteSpace=wrap;strokeWidth=2;" vertex="1" parent="1">
          <mxGeometry x="410" y="1640" width="184" height="54" as="geometry" />
        </mxCell>
        <mxCell id="HJ9GVEWfjG73R25og2IA-42" value="" style="curved=1;startArrow=none;endArrow=block;exitX=0.51;exitY=1;entryX=0.5;entryY=0;rounded=0;" edge="1" parent="1" source="HJ9GVEWfjG73R25og2IA-1" target="HJ9GVEWfjG73R25og2IA-2">
          <mxGeometry relative="1" as="geometry">
            <Array as="points" />
          </mxGeometry>
        </mxCell>
        <mxCell id="HJ9GVEWfjG73R25og2IA-43" value="" style="curved=1;startArrow=none;endArrow=block;exitX=0.5;exitY=1;entryX=0.5;entryY=0;rounded=0;" edge="1" parent="1" source="HJ9GVEWfjG73R25og2IA-2" target="HJ9GVEWfjG73R25og2IA-3">
          <mxGeometry relative="1" as="geometry">
            <Array as="points" />
          </mxGeometry>
        </mxCell>
        <mxCell id="HJ9GVEWfjG73R25og2IA-44" value="" style="curved=1;startArrow=none;endArrow=block;exitX=0.5;exitY=1;entryX=0.5;entryY=0;rounded=0;" edge="1" parent="1" source="HJ9GVEWfjG73R25og2IA-3" target="HJ9GVEWfjG73R25og2IA-4">
          <mxGeometry relative="1" as="geometry">
            <Array as="points" />
          </mxGeometry>
        </mxCell>
        <mxCell id="HJ9GVEWfjG73R25og2IA-45" value="" style="curved=1;startArrow=none;endArrow=block;exitX=0.5;exitY=1;entryX=0.5;entryY=0;rounded=0;" edge="1" parent="1" source="HJ9GVEWfjG73R25og2IA-4" target="HJ9GVEWfjG73R25og2IA-5">
          <mxGeometry relative="1" as="geometry">
            <Array as="points" />
          </mxGeometry>
        </mxCell>
        <mxCell id="HJ9GVEWfjG73R25og2IA-46" value="" style="curved=1;startArrow=none;endArrow=block;exitX=0.5;exitY=1;entryX=0.5;entryY=0;rounded=0;" edge="1" parent="1" source="HJ9GVEWfjG73R25og2IA-5" target="HJ9GVEWfjG73R25og2IA-6">
          <mxGeometry relative="1" as="geometry">
            <Array as="points" />
          </mxGeometry>
        </mxCell>
        <mxCell id="HJ9GVEWfjG73R25og2IA-47" value="" style="curved=1;startArrow=none;endArrow=block;exitX=0.5;exitY=1;entryX=0.5;entryY=0;rounded=0;" edge="1" parent="1" source="HJ9GVEWfjG73R25og2IA-6" target="HJ9GVEWfjG73R25og2IA-7">
          <mxGeometry relative="1" as="geometry">
            <Array as="points" />
          </mxGeometry>
        </mxCell>
        <mxCell id="HJ9GVEWfjG73R25og2IA-48" value="" style="curved=1;startArrow=none;endArrow=block;exitX=0.5;exitY=1;entryX=0.5;entryY=0;rounded=0;" edge="1" parent="1" source="HJ9GVEWfjG73R25og2IA-7" target="HJ9GVEWfjG73R25og2IA-8">
          <mxGeometry relative="1" as="geometry">
            <Array as="points" />
          </mxGeometry>
        </mxCell>
        <mxCell id="HJ9GVEWfjG73R25og2IA-49" value="" style="curved=1;startArrow=none;endArrow=block;exitX=0.5;exitY=1;entryX=0.5;entryY=0;rounded=0;" edge="1" parent="1" source="HJ9GVEWfjG73R25og2IA-8" target="HJ9GVEWfjG73R25og2IA-9">
          <mxGeometry relative="1" as="geometry">
            <Array as="points" />
          </mxGeometry>
        </mxCell>
        <mxCell id="HJ9GVEWfjG73R25og2IA-50" value="" style="curved=1;startArrow=none;endArrow=block;exitX=0.5;exitY=1;entryX=0.5;entryY=0;rounded=0;" edge="1" parent="1" source="HJ9GVEWfjG73R25og2IA-9" target="HJ9GVEWfjG73R25og2IA-10">
          <mxGeometry relative="1" as="geometry">
            <Array as="points" />
          </mxGeometry>
        </mxCell>
        <mxCell id="HJ9GVEWfjG73R25og2IA-51" value="" style="curved=1;startArrow=none;endArrow=block;exitX=0.5;exitY=1;entryX=0.5;entryY=0;rounded=0;" edge="1" parent="1" source="HJ9GVEWfjG73R25og2IA-10" target="HJ9GVEWfjG73R25og2IA-11">
          <mxGeometry relative="1" as="geometry">
            <Array as="points" />
          </mxGeometry>
        </mxCell>
        <mxCell id="HJ9GVEWfjG73R25og2IA-52" value="" style="curved=1;startArrow=none;endArrow=block;exitX=0.5;exitY=1;entryX=0.5;entryY=0;rounded=0;" edge="1" parent="1" source="HJ9GVEWfjG73R25og2IA-11" target="HJ9GVEWfjG73R25og2IA-12">
          <mxGeometry relative="1" as="geometry">
            <Array as="points" />
          </mxGeometry>
        </mxCell>
        <mxCell id="HJ9GVEWfjG73R25og2IA-53" value="" style="curved=1;startArrow=none;endArrow=block;exitX=0.5;exitY=1;entryX=0.5;entryY=0;rounded=0;" edge="1" parent="1" source="HJ9GVEWfjG73R25og2IA-12" target="HJ9GVEWfjG73R25og2IA-13">
          <mxGeometry relative="1" as="geometry">
            <Array as="points" />
          </mxGeometry>
        </mxCell>
        <mxCell id="HJ9GVEWfjG73R25og2IA-55" value="" style="curved=1;startArrow=none;endArrow=block;exitX=0.5;exitY=1;entryX=0.5;entryY=0;rounded=0;" edge="1" parent="1" source="HJ9GVEWfjG73R25og2IA-14" target="HJ9GVEWfjG73R25og2IA-15">
          <mxGeometry relative="1" as="geometry">
            <Array as="points" />
          </mxGeometry>
        </mxCell>
        <mxCell id="HJ9GVEWfjG73R25og2IA-56" value="" style="curved=1;startArrow=none;endArrow=block;exitX=0.5;exitY=1;entryX=0.5;entryY=0;rounded=0;" edge="1" parent="1" source="HJ9GVEWfjG73R25og2IA-15" target="HJ9GVEWfjG73R25og2IA-16">
          <mxGeometry relative="1" as="geometry">
            <Array as="points" />
          </mxGeometry>
        </mxCell>
        <mxCell id="HJ9GVEWfjG73R25og2IA-57" value="" style="curved=1;startArrow=none;endArrow=block;exitX=0.5;exitY=1;entryX=0.5;entryY=0;rounded=0;" edge="1" parent="1" source="HJ9GVEWfjG73R25og2IA-16" target="HJ9GVEWfjG73R25og2IA-17">
          <mxGeometry relative="1" as="geometry">
            <Array as="points" />
          </mxGeometry>
        </mxCell>
        <mxCell id="HJ9GVEWfjG73R25og2IA-58" value="" style="curved=1;startArrow=none;endArrow=block;exitX=0.5;exitY=1;entryX=0.5;entryY=0;rounded=0;" edge="1" parent="1" source="HJ9GVEWfjG73R25og2IA-17" target="HJ9GVEWfjG73R25og2IA-18">
          <mxGeometry relative="1" as="geometry">
            <Array as="points" />
          </mxGeometry>
        </mxCell>
        <mxCell id="HJ9GVEWfjG73R25og2IA-59" value="" style="curved=1;startArrow=none;endArrow=block;exitX=0.5;exitY=1;entryX=0.5;entryY=0;rounded=0;" edge="1" parent="1" source="HJ9GVEWfjG73R25og2IA-18" target="HJ9GVEWfjG73R25og2IA-19">
          <mxGeometry relative="1" as="geometry">
            <Array as="points" />
          </mxGeometry>
        </mxCell>
        <mxCell id="HJ9GVEWfjG73R25og2IA-60" value="" style="curved=1;startArrow=none;endArrow=block;exitX=0.5;exitY=1;entryX=0.5;entryY=0;rounded=0;" edge="1" parent="1" source="HJ9GVEWfjG73R25og2IA-19" target="HJ9GVEWfjG73R25og2IA-20">
          <mxGeometry relative="1" as="geometry">
            <Array as="points" />
          </mxGeometry>
        </mxCell>
        <mxCell id="HJ9GVEWfjG73R25og2IA-61" value="" style="curved=1;startArrow=none;endArrow=block;exitX=0.5;exitY=1;entryX=0.5;entryY=0;rounded=0;" edge="1" parent="1" source="HJ9GVEWfjG73R25og2IA-20" target="HJ9GVEWfjG73R25og2IA-21">
          <mxGeometry relative="1" as="geometry">
            <Array as="points" />
          </mxGeometry>
        </mxCell>
        <mxCell id="HJ9GVEWfjG73R25og2IA-62" value="" style="curved=1;startArrow=none;endArrow=block;exitX=0.5;exitY=1;entryX=0.5;entryY=0;rounded=0;" edge="1" parent="1" source="HJ9GVEWfjG73R25og2IA-21" target="HJ9GVEWfjG73R25og2IA-22">
          <mxGeometry relative="1" as="geometry">
            <Array as="points" />
          </mxGeometry>
        </mxCell>
        <mxCell id="HJ9GVEWfjG73R25og2IA-63" value="" style="curved=1;startArrow=none;endArrow=block;exitX=0.5;exitY=1;entryX=0.5;entryY=0;rounded=0;" edge="1" parent="1" source="HJ9GVEWfjG73R25og2IA-22" target="HJ9GVEWfjG73R25og2IA-23">
          <mxGeometry relative="1" as="geometry">
            <Array as="points" />
          </mxGeometry>
        </mxCell>
        <mxCell id="HJ9GVEWfjG73R25og2IA-64" value="" style="curved=1;startArrow=none;endArrow=block;exitX=0.5;exitY=1;entryX=0.5;entryY=0;rounded=0;" edge="1" parent="1" source="HJ9GVEWfjG73R25og2IA-23" target="HJ9GVEWfjG73R25og2IA-24">
          <mxGeometry relative="1" as="geometry">
            <Array as="points" />
          </mxGeometry>
        </mxCell>
        <mxCell id="HJ9GVEWfjG73R25og2IA-65" value="" style="curved=1;startArrow=none;endArrow=block;exitX=0.5;exitY=1;entryX=0.5;entryY=0;rounded=0;" edge="1" parent="1" source="HJ9GVEWfjG73R25og2IA-24" target="HJ9GVEWfjG73R25og2IA-25">
          <mxGeometry relative="1" as="geometry">
            <Array as="points" />
          </mxGeometry>
        </mxCell>
        <mxCell id="HJ9GVEWfjG73R25og2IA-66" value="" style="curved=1;startArrow=none;endArrow=block;exitX=0.5;exitY=1;entryX=0.5;entryY=0;rounded=0;" edge="1" parent="1" source="HJ9GVEWfjG73R25og2IA-25" target="HJ9GVEWfjG73R25og2IA-26">
          <mxGeometry relative="1" as="geometry">
            <Array as="points" />
          </mxGeometry>
        </mxCell>
        <mxCell id="HJ9GVEWfjG73R25og2IA-68" value="" style="curved=1;startArrow=none;endArrow=block;exitX=0.5;exitY=1;entryX=0.5;entryY=0;rounded=0;" edge="1" parent="1" source="HJ9GVEWfjG73R25og2IA-27" target="HJ9GVEWfjG73R25og2IA-28">
          <mxGeometry relative="1" as="geometry">
            <Array as="points" />
          </mxGeometry>
        </mxCell>
        <mxCell id="HJ9GVEWfjG73R25og2IA-69" value="" style="curved=1;startArrow=none;endArrow=block;exitX=0.5;exitY=1;entryX=0.5;entryY=0;rounded=0;" edge="1" parent="1" source="HJ9GVEWfjG73R25og2IA-28" target="HJ9GVEWfjG73R25og2IA-29">
          <mxGeometry relative="1" as="geometry">
            <Array as="points" />
          </mxGeometry>
        </mxCell>
        <mxCell id="HJ9GVEWfjG73R25og2IA-70" value="" style="curved=1;startArrow=none;endArrow=block;exitX=0.5;exitY=1;entryX=0.5;entryY=0;rounded=0;" edge="1" parent="1" source="HJ9GVEWfjG73R25og2IA-29" target="HJ9GVEWfjG73R25og2IA-30">
          <mxGeometry relative="1" as="geometry">
            <Array as="points" />
          </mxGeometry>
        </mxCell>
        <mxCell id="HJ9GVEWfjG73R25og2IA-71" value="" style="curved=1;startArrow=none;endArrow=block;exitX=0.5;exitY=1;entryX=0.5;entryY=0;rounded=0;" edge="1" parent="1" source="HJ9GVEWfjG73R25og2IA-30" target="HJ9GVEWfjG73R25og2IA-31">
          <mxGeometry relative="1" as="geometry">
            <Array as="points" />
          </mxGeometry>
        </mxCell>
        <mxCell id="HJ9GVEWfjG73R25og2IA-72" value="" style="curved=1;startArrow=none;endArrow=block;exitX=0.5;exitY=1;entryX=0.5;entryY=0;rounded=0;" edge="1" parent="1" source="HJ9GVEWfjG73R25og2IA-31" target="HJ9GVEWfjG73R25og2IA-32">
          <mxGeometry relative="1" as="geometry">
            <Array as="points" />
          </mxGeometry>
        </mxCell>
        <mxCell id="HJ9GVEWfjG73R25og2IA-73" value="" style="curved=1;startArrow=none;endArrow=block;exitX=0.5;exitY=1;entryX=0.5;entryY=0;rounded=0;" edge="1" parent="1" source="HJ9GVEWfjG73R25og2IA-32" target="HJ9GVEWfjG73R25og2IA-33">
          <mxGeometry relative="1" as="geometry">
            <Array as="points" />
          </mxGeometry>
        </mxCell>
        <mxCell id="HJ9GVEWfjG73R25og2IA-74" value="" style="curved=1;startArrow=none;endArrow=block;exitX=0.5;exitY=1;entryX=0.5;entryY=0;rounded=0;" edge="1" parent="1" source="HJ9GVEWfjG73R25og2IA-33" target="HJ9GVEWfjG73R25og2IA-34">
          <mxGeometry relative="1" as="geometry">
            <Array as="points" />
          </mxGeometry>
        </mxCell>
        <mxCell id="HJ9GVEWfjG73R25og2IA-75" value="" style="curved=1;startArrow=none;endArrow=block;exitX=0.5;exitY=1;entryX=0.5;entryY=0;rounded=0;" edge="1" parent="1" source="HJ9GVEWfjG73R25og2IA-34" target="HJ9GVEWfjG73R25og2IA-35">
          <mxGeometry relative="1" as="geometry">
            <Array as="points" />
          </mxGeometry>
        </mxCell>
        <mxCell id="HJ9GVEWfjG73R25og2IA-76" value="" style="curved=1;startArrow=none;endArrow=block;exitX=0.5;exitY=1;entryX=0.5;entryY=0;rounded=0;" edge="1" parent="1" source="HJ9GVEWfjG73R25og2IA-35" target="HJ9GVEWfjG73R25og2IA-36">
          <mxGeometry relative="1" as="geometry">
            <Array as="points" />
          </mxGeometry>
        </mxCell>
        <mxCell id="HJ9GVEWfjG73R25og2IA-77" value="" style="curved=1;startArrow=none;endArrow=block;exitX=0.5;exitY=1;entryX=0.5;entryY=0;rounded=0;" edge="1" parent="1" source="HJ9GVEWfjG73R25og2IA-36" target="HJ9GVEWfjG73R25og2IA-37">
          <mxGeometry relative="1" as="geometry">
            <Array as="points" />
          </mxGeometry>
        </mxCell>
        <mxCell id="HJ9GVEWfjG73R25og2IA-78" value="" style="curved=1;startArrow=none;endArrow=block;exitX=0.5;exitY=1;entryX=0.5;entryY=0;rounded=0;" edge="1" parent="1" source="HJ9GVEWfjG73R25og2IA-37" target="HJ9GVEWfjG73R25og2IA-38">
          <mxGeometry relative="1" as="geometry">
            <Array as="points" />
          </mxGeometry>
        </mxCell>
        <mxCell id="HJ9GVEWfjG73R25og2IA-79" value="" style="curved=1;startArrow=none;endArrow=block;exitX=0.5;exitY=1;entryX=0.5;entryY=0;rounded=0;" edge="1" parent="1" source="HJ9GVEWfjG73R25og2IA-38" target="HJ9GVEWfjG73R25og2IA-39">
          <mxGeometry relative="1" as="geometry">
            <Array as="points" />
          </mxGeometry>
        </mxCell>
        <mxCell id="HJ9GVEWfjG73R25og2IA-80" value="" style="curved=1;startArrow=none;endArrow=block;exitX=0.5;exitY=1;entryX=0.5;entryY=0;rounded=0;" edge="1" parent="1" source="HJ9GVEWfjG73R25og2IA-39" target="HJ9GVEWfjG73R25og2IA-40">
          <mxGeometry relative="1" as="geometry">
            <Array as="points" />
          </mxGeometry>
        </mxCell>
      </root>
    </mxGraphModel>
  </diagram>
</mxfile>
